<svg width="15" height="11" viewBox="0 0 15 11" fill="none" xmlns="http://www.w3.org/2000/svg">
<path d="M7.84237 5.52006L5.61717 9.33109L3.39199 5.52006H7.84237ZM8.43849 5.17944H2.79346L5.61717 10.0052L8.43849 5.17944Z" fill="white"/>
<path d="M11.7112 0.779855L13.9364 4.59088H9.48598L11.7112 0.779855ZM11.7112 0.0986328L8.88745 4.92435H14.5349L11.7112 0.0986328Z" fill="white"/>
<path d="M0.0880127 0.0986328L2.4556 4.36699L5.0428 0.205812L0.0880127 0.0986328Z" fill="#4CAF4F"/>
<path d="M5.61728 0.472656L8.10072 4.7172H3.12903L5.61728 0.472656Z" fill="#4CAF4F"/>
<path d="M8.74021 5.6438L11.2261 10.0051H6.13611L8.66297 5.6438H8.74021Z" fill="#4CAF4F"/>
<path d="M9.27832 5.37939L11.7111 9.67395L14.1776 5.37939H9.27832Z" fill="#4CAF4F"/>
</svg>
