<svg width="17" height="17" viewBox="0 0 17 17" fill="none" xmlns="http://www.w3.org/2000/svg">
<path d="M14.0917 14.4074V13.0719C14.0917 12.3635 13.8103 11.6842 13.3094 11.1833C12.8085 10.6824 12.1291 10.401 11.4208 10.401H10.753C10.5759 10.401 10.4061 10.3306 10.2809 10.2054C10.1556 10.0802 10.0853 9.91034 10.0853 9.73325V6.39458C10.0853 6.04039 9.94459 5.70071 9.69414 5.45026C9.44369 5.19982 9.10401 5.05912 8.74982 5.05912C8.39564 5.05912 8.05595 5.19982 7.80551 5.45026C7.55506 5.70071 7.41436 6.04039 7.41436 6.39458V12.4042L5.8118 10.2674C5.6874 10.1016 5.5261 9.96695 5.34066 9.87424C5.15523 9.78152 4.95075 9.73325 4.74343 9.73325H4.45363C3.87604 9.73325 3.40796 10.2013 3.40796 10.7789C3.40796 10.9686 3.45937 11.1549 3.55686 11.3171L5.41116 14.4074M8.74982 3.05592V2.38818V3.05592ZM12.7562 7.06231H13.424H12.7562ZM4.07569 7.06231H4.74343H4.07569ZM5.64019 3.95268L5.1681 3.48059L5.64019 3.95268ZM11.8595 3.95268L12.3315 3.48059L11.8595 3.95268Z" fill="#4CAF4F"/>
<path d="M14.0917 14.4074V13.0719C14.0917 12.3635 13.8103 11.6842 13.3094 11.1833C12.8085 10.6824 12.1291 10.401 11.4208 10.401H10.753C10.5759 10.401 10.4061 10.3306 10.2809 10.2054C10.1556 10.0802 10.0853 9.91034 10.0853 9.73325V6.39458C10.0853 6.04039 9.94459 5.70071 9.69414 5.45026C9.44369 5.19982 9.10401 5.05912 8.74982 5.05912V5.05912C8.39564 5.05912 8.05596 5.19982 7.80551 5.45026C7.55506 5.70071 7.41436 6.04039 7.41436 6.39458V12.4042L5.8118 10.2674C5.6874 10.1016 5.5261 9.96695 5.34066 9.87424C5.15523 9.78152 4.95075 9.73325 4.74343 9.73325H4.45363C3.87604 9.73325 3.40796 10.2013 3.40796 10.7789C3.40796 10.9686 3.45937 11.1549 3.55686 11.3171L5.41116 14.4074M8.74982 3.05592V2.38818M12.7562 7.06232H13.424M4.07569 7.06232H4.74343M5.64019 3.95268L5.1681 3.4806M11.8595 3.95268L12.3315 3.4806" stroke="#4CAF4F" stroke-width="0.667733" stroke-linecap="round" stroke-linejoin="round"/>
</svg>
