<svg width="17" height="17" viewBox="0 0 17 17" fill="none" xmlns="http://www.w3.org/2000/svg">
<path d="M2.72529 5.89371V6.06065H2.89222H14.9114H15.0784V5.89371V5.14252C15.0784 4.76619 14.9289 4.40528 14.6628 4.13918C14.3967 3.87308 14.0357 3.72358 13.6594 3.72358H4.14422C3.7679 3.72358 3.40699 3.87308 3.14089 4.13918C2.87479 4.40528 2.72529 4.76619 2.72529 5.14252V5.89371ZM15.0784 6.89531V6.72838H14.9114H2.89222H2.72529V6.89531V11.6529C2.72529 12.0292 2.87479 12.3901 3.14089 12.6563C3.40699 12.9224 3.7679 13.0718 4.14422 13.0718H13.6594C14.0357 13.0718 14.3967 12.9224 14.6628 12.6563C14.9289 12.3901 15.0784 12.0292 15.0784 11.6529V6.89531ZM2.05756 5.14252C2.05756 4.5891 2.2774 4.05835 2.66873 3.66702C3.06005 3.27569 3.59081 3.05585 4.14422 3.05585H13.6594C14.2128 3.05585 14.7436 3.27569 15.1349 3.66702C15.5262 4.05835 15.7461 4.5891 15.7461 5.14252V11.6529C15.7461 12.2063 15.5262 12.7371 15.1349 13.1284C14.7436 13.5197 14.2128 13.7396 13.6594 13.7396H4.14422C3.59081 13.7396 3.06005 13.5197 2.66873 13.1284C2.2774 12.7371 2.05756 12.2063 2.05756 11.6529V5.14252ZM11.4058 10.067H12.9082C12.9968 10.067 13.0817 10.1022 13.1443 10.1648C13.2069 10.2274 13.2421 10.3124 13.2421 10.4009C13.2421 10.4895 13.2069 10.5744 13.1443 10.637C13.0817 10.6996 12.9968 10.7348 12.9082 10.7348H11.4058C11.3173 10.7348 11.2324 10.6996 11.1697 10.637C11.1071 10.5744 11.072 10.4895 11.072 10.4009C11.072 10.3124 11.1071 10.2274 11.1697 10.1648C11.2324 10.1022 11.3173 10.067 11.4058 10.067Z" fill="#4CAF4F" stroke="#4CAF4F" stroke-width="0.333867"/>
</svg>
