<svg width="17" height="17" viewBox="0 0 17 17" fill="none" xmlns="http://www.w3.org/2000/svg">
<g clip-path="url(#clip0_212_1407)">
<path d="M11.3478 4.1202C11.1036 4.11975 10.8606 4.15352 10.6258 4.2205L10.6258 4.22049L10.6239 4.22106C10.5496 4.24321 10.4717 4.25037 10.3946 4.24212C10.3176 4.23386 10.2429 4.21036 10.1751 4.17298L10.0945 4.31922L10.1751 4.17298C10.1072 4.13561 10.0474 4.0851 9.99923 4.0244C9.95106 3.9637 9.91544 3.89403 9.89445 3.81943C9.87346 3.74483 9.86752 3.66681 9.87697 3.58989C9.88642 3.51298 9.91108 3.43871 9.94952 3.37142C9.98795 3.30413 10.0394 3.24515 10.1008 3.19793C10.1623 3.1507 10.2325 3.11617 10.3074 3.09635L10.3074 3.09638L10.3104 3.09552C10.6477 2.9995 10.9967 2.95108 11.3474 2.95167L11.3482 2.95166C12.1362 2.94937 12.9057 3.18999 13.552 3.64076C14.1984 4.09153 14.6901 4.73054 14.9602 5.47078C15.2304 6.21103 15.2658 7.01655 15.0617 7.77766C14.8576 8.53876 14.4239 9.21848 13.8196 9.72426L13.6159 9.89481L13.858 10.0044C14.8507 10.4536 15.7049 11.1605 16.3318 12.0517L16.3326 12.0527C16.3771 12.115 16.4088 12.1856 16.4259 12.2603C16.4429 12.335 16.4449 12.4123 16.4318 12.4878C16.4187 12.5632 16.3907 12.6354 16.3495 12.6999C16.3083 12.7645 16.2547 12.8202 16.1917 12.8639L16.1917 12.8638L16.1897 12.8652C16.0923 12.9349 15.9754 12.9722 15.8556 12.9718C15.7619 12.9713 15.6697 12.9484 15.5866 12.9052C15.5035 12.8619 15.4319 12.7995 15.3777 12.7232C14.9225 12.0774 14.3189 11.5503 13.6177 11.1861C12.9165 10.822 12.138 10.6315 11.3479 10.6306H11.3477C11.1927 10.6306 11.0441 10.569 10.9345 10.4595C10.825 10.3499 10.7634 10.2013 10.7634 10.0463C10.7634 9.89137 10.825 9.74276 10.9345 9.63319C11.0441 9.52362 11.1927 9.46206 11.3477 9.46206C12.0561 9.46206 12.7354 9.18066 13.2363 8.67976C13.7372 8.17887 14.0186 7.4995 14.0186 6.79113C14.0186 6.08275 13.7372 5.40339 13.2363 4.90249C12.7354 4.40163 12.0561 4.12023 11.3478 4.1202ZM11.3478 4.1202C11.3479 4.1202 11.3479 4.1202 11.348 4.1202L11.3477 4.28713V4.1202C11.3477 4.1202 11.3478 4.1202 11.3478 4.1202ZM8.71743 9.72452L8.51466 9.89511L8.75607 10.0044C9.74876 10.4536 10.603 11.1605 11.2299 12.0517L11.2298 12.0518L11.2349 12.0583C11.2836 12.1207 11.3191 12.1924 11.3393 12.2689L11.5007 12.2264L11.3393 12.2689C11.3594 12.3455 11.3639 12.4253 11.3522 12.5036C11.3406 12.5819 11.3132 12.657 11.2717 12.7244C11.2302 12.7918 11.1754 12.85 11.1107 12.8956C11.0459 12.9411 10.9726 12.9731 10.8952 12.9895C10.8178 13.0058 10.7378 13.0063 10.6602 12.9909C10.5825 12.9754 10.5089 12.9443 10.4436 12.8995C10.3784 12.8547 10.3229 12.7971 10.2806 12.7302L10.2807 12.7301L10.2761 12.7236C9.82182 12.0765 9.2184 11.5484 8.51689 11.1838C7.81538 10.8191 7.03639 10.6288 6.24578 10.6288C5.45517 10.6288 4.67618 10.8191 3.97466 11.1838C3.27315 11.5484 2.66974 12.0765 2.21544 12.7236L2.21506 12.7241C2.16166 12.8008 2.09045 12.8634 2.00755 12.9066C1.92465 12.9497 1.83252 12.9721 1.73906 12.9718L1.73803 12.9718C1.61818 12.9722 1.50122 12.9349 1.40371 12.8652L1.40291 12.8647C1.27651 12.7754 1.19067 12.6397 1.1642 12.4873C1.13773 12.3349 1.1728 12.1782 1.26171 12.0516C1.88865 11.1605 2.74284 10.4536 3.73548 10.0044L3.97689 9.89511L3.77412 9.72452C3.17148 9.21756 2.73931 8.53754 2.5362 7.77666C2.33309 7.01578 2.36887 6.21085 2.63869 5.47099C2.9085 4.73113 3.3993 4.09213 4.04454 3.64063C4.68978 3.18913 5.45825 2.94696 6.24578 2.94696C7.0333 2.94696 7.80177 3.18913 8.44702 3.64063C9.09226 4.09213 9.58306 4.73113 9.85287 5.47099C10.1227 6.21085 10.1585 7.01578 9.95535 7.77666C9.75224 8.53754 9.32007 9.21756 8.71743 9.72452ZM1.30664 13.001C1.43262 13.0911 1.58372 13.1393 1.73858 13.1388C1.85903 13.1391 1.97776 13.1102 2.08461 13.0546C2.19146 12.999 2.28323 12.9184 2.35206 12.8195C2.79096 12.1944 3.37392 11.6841 4.05165 11.3319C4.72938 10.9796 5.48197 10.7957 6.24578 10.7957C7.00959 10.7957 7.76217 10.9796 8.4399 11.3319C9.11764 11.6841 9.7006 12.1944 10.1395 12.8195L1.30664 13.001ZM4.02498 5.30724C3.73149 5.74647 3.57484 6.26287 3.57484 6.79113C3.57484 7.4995 3.85625 8.17887 4.35714 8.67976C4.85804 9.18066 5.5374 9.46206 6.24578 9.46206C6.77404 9.46206 7.29043 9.30541 7.72967 9.01193C8.1689 8.71844 8.51124 8.3013 8.7134 7.81325C8.91555 7.3252 8.96845 6.78817 8.86539 6.27006C8.76233 5.75195 8.50795 5.27603 8.13441 4.90249C7.76087 4.52896 7.28496 4.27458 6.76685 4.17152C6.24874 4.06846 5.7117 4.12135 5.22366 4.32351C4.73561 4.52567 4.31846 4.86801 4.02498 5.30724Z" fill="#4CAF4F" stroke="#4CAF4F" stroke-width="0.333867"/>
</g>
<defs>
<clipPath id="clip0_212_1407">
<rect width="16.0256" height="16.0256" fill="white" transform="translate(0.737061 0.0302734)"/>
</clipPath>
</defs>
</svg>
