<svg width="23" height="20" viewBox="0 0 23 20" fill="none" xmlns="http://www.w3.org/2000/svg">
<path d="M22.6287 13.1396C22.6287 16.4586 19.9381 19.1492 16.6191 19.1492L7.60467 19.1492C6.68272 19.1492 5.93534 18.4018 5.93534 17.4798L5.93534 6.12837C5.93534 4.28448 7.43011 2.78971 9.274 2.78971L20.9593 2.78971C21.8813 2.78971 22.6287 3.5371 22.6287 4.45904L22.6287 13.1396Z" fill="#E8F5E9"/>
<path d="M10.3797 8.3469C10.2993 8.3469 10.2246 8.32479 10.1583 8.28924V8.29019C10.1583 8.41667 10.1092 8.53545 10.02 8.62441C9.93078 8.71361 9.81209 8.76277 9.68575 8.76277C9.60419 8.76277 9.5286 8.74012 9.46157 8.70362C9.45481 8.81933 9.40856 8.92748 9.32605 9.01008C9.23685 9.09928 9.11816 9.14844 8.99174 9.14844C8.74058 9.14844 8.53661 8.95101 8.52191 8.70354C8.4442 8.74554 8.35634 8.76757 8.26572 8.76175C8.01864 8.74554 7.82515 8.53207 7.82515 8.27563V6.15002L7.58311 6.56934C7.49092 6.72973 7.31836 6.82931 7.13256 6.82931C7.04202 6.82931 6.95259 6.80555 6.87338 6.76017C6.77474 6.70298 6.70419 6.61119 6.67484 6.50137C6.64535 6.39149 6.66061 6.27657 6.71763 6.17808C6.71771 6.17808 7.50956 4.80682 7.55787 4.72259C7.56361 4.70993 7.57998 4.6732 7.5939 4.64189C7.60719 4.612 7.6186 4.58132 7.62953 4.55049C7.86833 3.87632 8.45962 3.45754 9.17273 3.45754C10.0988 3.45754 10.8522 4.27448 10.8522 5.27864L10.8522 7.87424C10.8522 8.00057 10.8032 8.11926 10.714 8.20855C10.6248 8.29775 10.5061 8.34691 10.3797 8.34691L10.3797 8.3469ZM9.17274 3.70865C8.55998 3.70865 8.07159 4.05476 7.86622 4.63447C7.85309 4.67128 7.8394 4.70809 7.82343 4.74396C7.7771 4.84787 7.7771 4.84787 7.76404 4.86281L7.76231 4.86132C7.69766 4.98332 7.50557 5.31596 6.93507 6.30376C6.91163 6.34427 6.90541 6.39131 6.91737 6.4363C6.92948 6.48129 6.95851 6.5192 6.9987 6.54241C7.12345 6.61406 7.2943 6.56781 7.36541 6.44393L7.842 5.61879C7.87047 5.56963 7.92805 5.54548 7.98327 5.56043C8.03817 5.57514 8.07632 5.62493 8.07632 5.68172V8.27571C8.07632 8.3981 8.16866 8.50373 8.28218 8.5112C8.34762 8.51466 8.40866 8.49272 8.45452 8.44694C8.49621 8.40525 8.51917 8.34972 8.51917 8.29033V6.59383C8.51917 6.52445 8.57541 6.46821 8.64479 6.46821C8.71417 6.46821 8.77041 6.52437 8.77041 6.59383L8.77033 8.67594C8.77033 8.79802 8.86967 8.89737 8.99175 8.89737C9.05106 8.89737 9.10675 8.8744 9.14852 8.83271C9.19021 8.79094 9.21317 8.73525 9.21317 8.67594V6.59383C9.21317 6.52445 9.26934 6.46821 9.33879 6.46821C9.40817 6.46821 9.46441 6.52437 9.46441 6.59383L9.46433 8.27082V8.29032C9.46433 8.41232 9.56368 8.51166 9.68583 8.51166C9.74506 8.51166 9.80059 8.48862 9.8426 8.44677C9.88429 8.40516 9.90725 8.34963 9.90725 8.29024V6.59374C9.90725 6.52436 9.96342 6.46812 10.0329 6.46812C10.1022 6.46812 10.1585 6.52428 10.1585 6.59374L10.1583 7.8743C10.1583 7.99646 10.2577 8.0958 10.3797 8.0958C10.4391 8.0958 10.4946 8.07276 10.5363 8.03115C10.5781 7.9893 10.601 7.93361 10.601 7.8743L10.6011 5.2787C10.6011 4.41308 9.96035 3.70868 9.17273 3.70868L9.17274 3.70865Z" fill="#103E13"/>
<path d="M5.44427 10.151L7.26708 9.05748C7.48685 8.92549 7.76963 8.98158 7.91058 9.18523C7.96203 9.2594 7.9883 9.34585 7.99239 9.43387C8.06035 9.3984 8.13429 9.37912 8.20956 9.37912C8.2481 9.37912 8.2868 9.38392 8.32503 9.39344C8.4475 9.42404 8.5507 9.50057 8.6156 9.6088C8.68057 9.71719 8.69953 9.84422 8.66893 9.96654C8.64069 10.0797 8.57187 10.175 8.47614 10.2404C8.54308 10.2798 8.60081 10.3337 8.64187 10.4023C8.70685 10.5107 8.7258 10.6377 8.69528 10.7601C8.66468 10.8825 8.58815 10.9857 8.47976 11.0507L8.47913 11.0511C8.54489 11.0905 8.6016 11.1438 8.64219 11.2114C8.70724 11.3198 8.7262 11.4468 8.6956 11.5693C8.66492 11.6917 8.58839 11.7949 8.48016 11.8599L6.25447 13.1951C5.83907 13.4442 5.35886 13.5302 4.90249 13.437C4.44202 13.3429 4.06068 13.0782 3.82881 12.6917C3.46186 12.0801 3.51685 11.3576 3.97204 10.8061C3.99289 10.7809 4.01342 10.7553 4.03206 10.7287C4.0518 10.7006 4.07485 10.6676 4.08272 10.6562C4.12983 10.5721 4.89865 9.1869 4.89857 9.18706C4.9762 9.04697 5.12172 8.96767 5.2718 8.96775C5.3418 8.96775 5.41283 8.98498 5.47836 9.02132C5.55749 9.06553 5.62395 9.12995 5.67044 9.20758C5.76601 9.36687 5.76939 9.56619 5.67941 9.72751L5.44427 10.151ZM5.4552 9.33672C5.43082 9.29605 5.39731 9.26364 5.35632 9.24067C5.27161 9.1938 5.16495 9.22431 5.11831 9.30871C4.56818 10.2998 4.38065 10.6376 4.30828 10.7578L4.30993 10.7582C4.30387 10.7783 4.30387 10.7783 4.23765 10.8729C4.21515 10.9049 4.19069 10.9357 4.16575 10.966C3.77434 11.4402 3.72889 12.037 4.04407 12.5625C4.2393 12.888 4.56196 13.1111 4.95265 13.1909C5.34758 13.2712 5.76385 13.1965 6.12513 12.9797L8.35102 11.6444C8.40184 11.614 8.43771 11.5656 8.45202 11.5082C8.46634 11.451 8.45745 11.3914 8.42693 11.3406C8.36416 11.236 8.22785 11.2016 8.12323 11.2646L7.02517 11.9234C6.9657 11.9591 6.88846 11.9399 6.85283 11.8804C6.81712 11.8209 6.83639 11.7438 6.89585 11.708L7.994 11.0493L8.35063 10.8353C8.40145 10.8048 8.43739 10.7564 8.45171 10.6992C8.46602 10.6419 8.45714 10.5823 8.42662 10.5316C8.36377 10.4269 8.22745 10.3928 8.12292 10.4556L6.66814 11.3283C6.60851 11.3641 6.53151 11.3447 6.4958 11.2853C6.46009 11.2258 6.47943 11.1486 6.53882 11.1129L8.32429 10.0418C8.3751 10.0113 8.41097 9.96302 8.42528 9.90568C8.4396 9.84842 8.43071 9.78887 8.40027 9.73806C8.36983 9.68733 8.32145 9.65146 8.26411 9.63714C8.20645 9.62283 8.14715 9.63171 8.09649 9.66208L7.76597 9.86037C7.76589 9.86037 7.76589 9.86045 7.76581 9.86045H7.76573L6.31103 10.7332C6.25141 10.769 6.17432 10.7497 6.13869 10.6901C6.10298 10.6307 6.12233 10.5535 6.18172 10.5178L7.6365 9.64509C7.68731 9.61457 7.72326 9.56619 7.73758 9.50901C7.75331 9.44624 7.74135 9.38205 7.70407 9.32825C7.63941 9.23473 7.50113 9.20987 7.39628 9.27288L5.172 10.6072C5.12331 10.6363 5.06094 10.6293 5.02011 10.5899C4.97921 10.5504 4.97001 10.4883 4.99754 10.4387L5.46005 9.60537C5.50646 9.52207 5.50465 9.41918 5.45517 9.33675L5.4552 9.33672Z" fill="#103E13"/>
<path d="M14.1545 12.6915C13.9227 13.0781 13.5415 13.3427 13.0809 13.4368C12.6245 13.5299 12.1444 13.444 11.729 13.1949L9.50307 11.8596C9.39476 11.7947 9.31815 11.6915 9.28747 11.5689C9.25703 11.4466 9.27606 11.3195 9.34096 11.2113C9.38146 11.1437 9.43826 11.0903 9.50409 11.0509L9.50346 11.0505C9.39515 10.9856 9.31854 10.8824 9.28802 10.76C9.25735 10.6376 9.27638 10.5105 9.34135 10.4021C9.3832 10.3325 9.44054 10.278 9.50599 10.2394C9.41097 10.1741 9.34253 10.0791 9.31437 9.96647C9.2837 9.844 9.30273 9.71696 9.3677 9.60872C9.4326 9.50041 9.53588 9.42388 9.65827 9.39328C9.6965 9.38369 9.73528 9.37897 9.77367 9.37897C9.84902 9.37905 9.92296 9.39816 9.99092 9.43371C9.99509 9.3457 10.0213 9.25925 10.0727 9.18507C10.2138 8.98159 10.4963 8.92527 10.7164 9.05733L12.5391 10.1507L12.3042 9.72749C12.214 9.56593 12.2174 9.3666 12.3129 9.20724C12.3595 9.12968 12.426 9.06526 12.5056 9.02067C12.5709 8.98448 12.6417 8.96734 12.7116 8.96734C12.8616 8.96741 13.0072 9.04655 13.0848 9.18664C13.3551 9.67362 13.8651 10.592 13.9009 10.6561C13.9086 10.6672 13.9316 10.7003 13.9514 10.7284C13.9702 10.755 13.9904 10.7805 14.0115 10.8058C14.4666 11.3575 14.5215 12.08 14.1545 12.6915L14.1545 12.6915ZM13.8177 10.9659C13.7926 10.9356 13.7681 10.9047 13.7458 10.8729C13.6778 10.7764 13.6761 10.7739 13.671 10.7487C13.5915 10.6172 13.3977 10.2683 12.865 9.30849C12.8182 9.22425 12.712 9.1935 12.6275 9.24022C12.5859 9.2635 12.5524 9.29599 12.5281 9.33666C12.4787 9.41901 12.4768 9.52189 12.5234 9.60544L12.9858 10.4385C13.0134 10.4882 13.0042 10.5502 12.9634 10.5897C12.9226 10.6293 12.8603 10.6362 12.8114 10.6071L10.5871 9.2727C10.4823 9.20986 10.3441 9.23448 10.2792 9.32808C10.242 9.38188 10.2301 9.44607 10.2457 9.50876C10.26 9.56602 10.2959 9.61432 10.3468 9.64484C10.347 9.64491 10.347 9.64507 10.3472 9.64515L11.8015 10.5176C11.861 10.5533 11.8803 10.6304 11.8446 10.69C11.8088 10.7494 11.7318 10.7688 11.6722 10.733L9.88675 9.66191C9.83609 9.63155 9.77647 9.62258 9.71921 9.63698C9.66178 9.65129 9.61349 9.68716 9.58305 9.73805C9.55253 9.78878 9.54372 9.84833 9.55788 9.90559C9.57219 9.96286 9.60814 10.0112 9.65895 10.0417L10.0064 10.2501L11.4443 11.1129C11.5038 11.1486 11.5231 11.2256 11.4874 11.2852C11.4517 11.3446 11.3746 11.3639 11.315 11.3282L9.8604 10.4555C9.75579 10.3926 9.61955 10.4267 9.55662 10.5315C9.5261 10.5823 9.51729 10.6418 9.53145 10.6991C9.54577 10.7564 9.58171 10.8047 9.6326 10.8353L9.98924 11.0492L11.0872 11.708C11.1467 11.7437 11.166 11.8208 11.1303 11.8803C11.0945 11.9397 11.0175 11.9592 10.9579 11.9233L9.85993 11.2646C9.80927 11.2342 9.74989 11.2252 9.69231 11.2396C9.63504 11.254 9.58659 11.2898 9.55615 11.3406C9.52571 11.3914 9.51682 11.451 9.53098 11.5082C9.5453 11.5654 9.58124 11.6137 9.63213 11.6443L11.858 12.9796C12.2192 13.1963 12.6358 13.2714 13.0305 13.1908C13.4211 13.1111 13.7438 12.8879 13.939 12.5624C14.2545 12.0368 14.2091 11.44 13.8178 10.9659L13.8177 10.9659Z" fill="#103E13"/>
</svg>
