<svg width="23" height="20" viewBox="0 0 23 20" fill="none" xmlns="http://www.w3.org/2000/svg">
<path d="M22.2345 13.1398C22.2345 16.4588 19.5439 19.1494 16.2249 19.1494L7.2105 19.1494C6.28856 19.1494 5.54117 18.402 5.54117 17.4801L5.54117 6.12862C5.54117 4.28472 7.03594 2.78995 8.87984 2.78995L20.5652 2.78995C21.4871 2.78995 22.2345 3.53734 22.2345 4.45929L22.2345 13.1398Z" fill="#E8F5E9"/>
<path d="M9.51967 6.79999C9.4155 6.79999 9.33081 6.71544 9.33081 6.61113V6.29018C9.33081 6.186 9.41536 6.10132 9.51967 6.10132C9.62384 6.10132 9.70853 6.18587 9.70853 6.29018V6.61113C9.70853 6.71544 9.62385 6.79999 9.51967 6.79999Z" fill="#103E13"/>
<path d="M8.7256 6.79999C8.62143 6.79999 8.53674 6.71544 8.53674 6.61113V6.29018C8.53674 6.186 8.62129 6.10132 8.7256 6.10132C8.82978 6.10132 8.91446 6.18587 8.91446 6.29018V6.61113C8.91433 6.71544 8.82991 6.79999 8.7256 6.79999Z" fill="#103E13"/>
<path d="M7.93166 6.79999C7.82748 6.79999 7.7428 6.71544 7.7428 6.61113V6.29018C7.7428 6.186 7.82735 6.10132 7.93166 6.10132C8.03583 6.10132 8.12052 6.18587 8.12052 6.29018V6.61113C8.12052 6.71544 8.03597 6.79999 7.93166 6.79999Z" fill="#103E13"/>
<path d="M9.51967 8.1126C9.4155 8.1126 9.33081 8.02805 9.33081 7.92374V7.60292C9.33081 7.49875 9.41536 7.41406 9.51967 7.41406C9.62384 7.41406 9.70853 7.49861 9.70853 7.60292V7.92374C9.70853 8.02805 9.62385 8.1126 9.51967 8.1126Z" fill="#103E13"/>
<path d="M8.7256 8.1126C8.62143 8.1126 8.53674 8.02805 8.53674 7.92374V7.60292C8.53674 7.49875 8.62129 7.41406 8.7256 7.41406C8.82978 7.41406 8.91446 7.49861 8.91446 7.60292V7.92374C8.91433 8.02805 8.82991 8.1126 8.7256 8.1126Z" fill="#103E13"/>
<path d="M7.93166 8.1126C7.82748 8.1126 7.7428 8.02805 7.7428 7.92374V7.60292C7.7428 7.49875 7.82735 7.41406 7.93166 7.41406C8.03583 7.41406 8.12052 7.49861 8.12052 7.60292V7.92374C8.12052 8.02805 8.03597 8.1126 7.93166 8.1126Z" fill="#103E13"/>
<path d="M9.51967 9.42523C9.4155 9.42523 9.33081 9.34068 9.33081 9.23637V8.91542C9.33081 8.81125 9.41536 8.72656 9.51967 8.72656C9.62384 8.72656 9.70853 8.81111 9.70853 8.91542V9.23637C9.70853 9.34068 9.62385 9.42523 9.51967 9.42523Z" fill="#103E13"/>
<path d="M8.7256 9.42523C8.62143 9.42523 8.53674 9.34068 8.53674 9.23637V8.91542C8.53674 8.81125 8.62129 8.72656 8.7256 8.72656C8.82978 8.72656 8.91446 8.81111 8.91446 8.91542V9.23637C8.91433 9.34068 8.82991 9.42523 8.7256 9.42523Z" fill="#103E13"/>
<path d="M7.93166 9.42523C7.82748 9.42523 7.7428 9.34068 7.7428 9.23637V8.91542C7.7428 8.81125 7.82735 8.72656 7.93166 8.72656C8.03583 8.72656 8.12052 8.81111 8.12052 8.91542V9.23637C8.12052 9.34068 8.03597 9.42523 7.93166 9.42523Z" fill="#103E13"/>
<path d="M9.51967 10.7372C9.4155 10.7372 9.33081 10.6527 9.33081 10.5484V10.2274C9.33081 10.1233 9.41536 10.0386 9.51967 10.0386C9.62384 10.0386 9.70853 10.1231 9.70853 10.2274V10.5484C9.70853 10.6527 9.62385 10.7372 9.51967 10.7372Z" fill="#103E13"/>
<path d="M8.7256 10.7372C8.62143 10.7372 8.53674 10.6527 8.53674 10.5484V10.2274C8.53674 10.1233 8.62129 10.0386 8.7256 10.0386C8.82978 10.0386 8.91446 10.1231 8.91446 10.2274V10.5484C8.91433 10.6527 8.82991 10.7372 8.7256 10.7372Z" fill="#103E13"/>
<path d="M7.93166 10.7372C7.82748 10.7372 7.7428 10.6527 7.7428 10.5484V10.2274C7.7428 10.1233 7.82735 10.0386 7.93166 10.0386C8.03583 10.0386 8.12052 10.1231 8.12052 10.2274V10.5484C8.12052 10.6527 8.03597 10.7372 7.93166 10.7372Z" fill="#103E13"/>
<path d="M9.51967 12.0499C9.4155 12.0499 9.33081 11.9653 9.33081 11.861V11.5402C9.33081 11.436 9.41536 11.3513 9.51967 11.3513C9.62384 11.3513 9.70853 11.4359 9.70853 11.5402V11.861C9.70853 11.9652 9.62385 12.0499 9.51967 12.0499Z" fill="#103E13"/>
<path d="M8.7256 12.0499C8.62143 12.0499 8.53674 11.9653 8.53674 11.861V11.5402C8.53674 11.436 8.62129 11.3513 8.7256 11.3513C8.82978 11.3513 8.91446 11.4359 8.91446 11.5402V11.861C8.91433 11.9652 8.82991 12.0499 8.7256 12.0499Z" fill="#103E13"/>
<path d="M7.93166 12.0499C7.82748 12.0499 7.7428 11.9653 7.7428 11.861L7.74293 11.5402C7.74293 11.436 7.82748 11.3513 7.93179 11.3513C8.03596 11.3513 8.12065 11.4359 8.12065 11.5402V11.861C8.12052 11.9652 8.03597 12.0499 7.93166 12.0499Z" fill="#103E13"/>
<path d="M2.53654 13.356C2.53654 13.4601 2.62109 13.5448 2.7254 13.5448H14.2263C14.3305 13.5448 14.4152 13.4603 14.4152 13.356C14.4152 13.2518 14.3307 13.1671 14.2263 13.1671H13.8772V7.74467C13.8772 7.64049 13.7927 7.55581 13.6884 7.55581L10.6049 7.55594V3.64665C10.6049 3.58054 10.5704 3.51943 10.514 3.48519C10.4578 3.45081 10.3874 3.44871 10.329 3.47913L6.82324 5.30437C6.76068 5.3369 6.7217 5.40144 6.7217 5.4719V8.88658H3.32894C3.22476 8.88658 3.14008 8.97113 3.14008 9.07544V13.1671H2.72497C2.6208 13.167 2.53638 13.2515 2.53638 13.3559L2.53654 13.356ZM10.6049 10.4163H13.4997V13.1672L10.6049 13.1671V10.4163ZM10.6049 9.10388H13.4997V10.0387L10.6049 10.0386V9.10388ZM10.6049 7.93346H13.4997V8.72644H10.6049V7.93346ZM7.09922 5.58657L10.2271 3.95796V13.1669H7.09922V5.58657ZM4.45139 11.6587C4.45139 11.2668 4.76194 10.9478 5.14374 10.9478C5.52553 10.9478 5.83622 11.2666 5.83622 11.6587V13.1672H4.45139V11.6587ZM3.51778 9.26423H6.72165V13.1671H6.21393V11.6586C6.21393 11.0585 5.73402 10.5701 5.14374 10.5701C4.55372 10.5701 4.07382 11.0583 4.07382 11.6586V13.1671H3.51778V9.26423Z" fill="#103E13"/>
</svg>
