<svg width="22" height="20" viewBox="0 0 22 20" fill="none" xmlns="http://www.w3.org/2000/svg">
<path d="M21.8403 13.1396C21.8403 16.4586 19.1497 19.1492 15.8307 19.1492L6.81634 19.1492C5.89439 19.1492 5.14701 18.4018 5.14701 17.4798L5.14701 6.12837C5.14701 4.28448 6.64178 2.78971 8.48567 2.78971L20.171 2.78971C21.0929 2.78971 21.8403 3.5371 21.8403 4.45904L21.8403 13.1396Z" fill="#E8F5E9"/>
<path d="M8.14849 3.79126C6.95617 3.79126 5.98552 4.77079 5.98552 5.96818C5.98552 6.72567 6.37449 7.3945 6.96185 7.78435C6.25244 8.02156 5.63859 8.46489 5.18835 9.04488C4.93944 8.85341 4.6613 8.69943 4.36146 8.58909C4.81614 8.25154 5.11327 7.7093 5.11327 7.09987C5.11327 6.08433 4.29193 5.25299 3.28255 5.25299C2.27316 5.25299 1.45183 6.08433 1.45183 7.09987C1.45183 7.70965 1.7492 8.25213 2.20426 8.58969C0.999481 9.03427 0.139038 10.1982 0.139038 11.5681V12.5304C0.139161 12.6037 0.168504 12.674 0.220531 12.7257C0.272558 12.7774 0.342957 12.8063 0.416313 12.806H4.63804C4.64828 12.8071 4.65851 12.8078 4.66874 12.8076H11.6285C11.6387 12.8078 11.6491 12.8071 11.6592 12.806H15.8812C16.033 12.8054 16.1559 12.6823 16.1563 12.5304V11.5681C16.1563 10.1982 15.2973 9.03427 14.0932 8.58956C14.5482 8.25213 14.8456 7.70952 14.8456 7.09974C14.8456 6.08421 14.0243 5.25286 13.0149 5.25286C12.0055 5.25286 11.1842 6.08421 11.1842 7.09974C11.1842 7.70917 11.4814 8.2515 11.9361 8.58896C11.6356 8.69955 11.3574 8.85403 11.1081 9.04598C10.6581 8.46565 10.0451 8.0217 9.3357 7.78435C9.92291 7.3945 10.312 6.72567 10.312 5.96818C10.312 4.77079 9.34088 3.79126 8.14856 3.79126H8.14849ZM8.14849 4.34359C9.04024 4.34359 9.75913 5.06731 9.75913 5.96818C9.75913 6.86202 9.05145 7.5787 8.16957 7.59019C8.16255 7.59019 8.15564 7.5892 8.14849 7.5892C8.14134 7.5892 8.13456 7.59019 8.12741 7.59019C7.24553 7.57884 6.53833 6.86205 6.53833 5.96818C6.53833 5.06718 7.25661 4.34359 8.14837 4.34359H8.14849ZM3.28258 5.80529C3.99014 5.80529 4.56097 6.37956 4.56097 7.09984C4.56097 7.81529 3.99752 8.38709 3.29662 8.39486C3.29194 8.39486 3.28738 8.39437 3.28257 8.39437C3.27788 8.39437 3.27332 8.39486 3.26851 8.39486C2.56762 8.38709 2.00417 7.81516 2.00417 7.09984C2.00417 6.37959 2.575 5.80529 3.28256 5.80529H3.28258ZM13.0147 5.80529C13.7223 5.80529 14.2931 6.37956 14.2931 7.09984C14.2931 7.81529 13.7297 8.38709 13.0288 8.39486C13.0241 8.39486 13.0195 8.39437 13.0147 8.39437C13.01 8.39437 13.0055 8.39486 13.0007 8.39486C12.2998 8.38709 11.7363 7.81516 11.7363 7.09984C11.7363 6.37959 12.3071 5.80529 13.0147 5.80529H13.0147ZM8.12734 8.14249C8.13437 8.14261 8.14128 8.14348 8.14843 8.14348C8.15545 8.14348 8.16236 8.14249 8.16951 8.14249C9.93808 8.15383 11.3535 9.5814 11.3535 11.3684L11.3534 12.2551H4.94375V11.3684C4.94375 9.58124 6.35874 8.15385 8.12709 8.14249H8.12734ZM3.26143 8.94782C3.26846 8.94795 3.27536 8.94881 3.28252 8.94881C3.28967 8.94881 3.29645 8.94782 3.3036 8.94782C3.90179 8.95263 4.44772 9.1589 4.88242 9.50398C4.57136 10.0544 4.39148 10.6896 4.39148 11.3686V12.2532H0.69115V11.5681C0.69115 10.1157 1.83306 8.95916 3.26137 8.9477L3.26143 8.94782ZM12.9936 8.94782C13.0007 8.94795 13.0075 8.94881 13.0147 8.94881C13.0218 8.94881 13.0286 8.94782 13.0357 8.94782C14.464 8.95917 15.606 10.1159 15.606 11.5682V12.2532H11.9037L11.9036 11.3686C11.9036 10.69 11.7242 10.0552 11.4138 9.50496C11.8486 9.15938 12.3949 8.95262 12.9936 8.94782H12.9936Z" fill="#103E13"/>
</svg>
